<?xml version="1.0" encoding="UTF-8"?>
<svg width="128" height="128" viewBox="0 0 128 128" xmlns="http://www.w3.org/2000/svg">
  <!-- Background square with rounded corners -->
  <rect x="0" y="0" width="128" height="128" rx="16" fill="#834af1"/>
  
  <!-- White document/post shape -->
  <rect x="24" y="20" width="80" height="88" rx="8" fill="white"/>
  
  <!-- Lines representing text -->
  <rect x="34" y="36" width="60" height="5" rx="2.5" fill="#834af1" opacity="0.3"/>
  <rect x="34" y="48" width="52" height="5" rx="2.5" fill="#834af1" opacity="0.3"/>
  <rect x="34" y="60" width="56" height="5" rx="2.5" fill="#834af1" opacity="0.3"/>
  
  <!-- AI sparkle/magic wand effect -->
  <g transform="translate(72, 78) scale(1.3)">
    <!-- Magic wand stick -->
    <rect x="8" y="16" width="3" height="16" rx="1.5" fill="#FDB813" transform="rotate(-45 9.5 24)"/>
    
    <!-- Sparkles -->
    <path d="M 5 5 L 6 8 L 9 9 L 6 10 L 5 13 L 4 10 L 1 9 L 4 8 Z" fill="#FDB813"/>
    <path d="M 16 2 L 17 4 L 19 5 L 17 6 L 16 8 L 15 6 L 13 5 L 15 4 Z" fill="#FDB813"/>
    <path d="M 20 12 L 20.5 13 L 21.5 13.5 L 20.5 14 L 20 15 L 19.5 14 L 18.5 13.5 L 19.5 13 Z" fill="#FDB813"/>
  </g>
  
  <!-- Pro badge in corner -->
  <circle cx="98" cy="30" r="22" fill="#FDB813"/>
  <text x="98" y="37" font-family="Arial, sans-serif" font-size="16" font-weight="bold" fill="#834af1" text-anchor="middle">PRO</text>
</svg>
